<svg width="30" height="30" viewBox="0 0 30 30" fill="none" xmlns="http://www.w3.org/2000/svg">
    <path d="M15 2.5C8.1 2.5 2.5 8.1 2.5 15C2.5 21.9 8.1 27.5 15 27.5C21.9 27.5 27.5 21.9 27.5 15C27.5 8.1 21.9 2.5 15 2.5ZM16.7625 22.6125V25H13.425V22.5875C11.2875 22.1375 9.475 20.7625 9.3375 18.3375H11.7875C11.9125 19.65 12.8125 20.675 15.1 20.675C17.55 20.675 18.1 19.45 18.1 18.6875C18.1 17.65 17.55 16.675 14.7625 16.0125C11.6625 15.2625 9.5375 13.9875 9.5375 11.425C9.5375 9.275 11.275 7.875 13.425 7.4125V5H16.7625V7.4375C19.0875 8 20.25 9.7625 20.325 11.675H17.875C17.8125 10.2875 17.075 9.3375 15.1 9.3375C13.225 9.3375 12.1 10.1875 12.1 11.3875C12.1 12.4375 12.9125 13.125 15.4375 13.775C17.9625 14.425 20.6625 15.5125 20.6625 18.6625C20.65 20.95 18.9375 22.2 16.7625 22.6125Z" fill="#0364FF"/>
</svg>
